<?xml version="1.0" encoding="iso-8859-1"?>
<!-- Generator: Adobe Illustrator 19.0.0, SVG Export Plug-In . SVG Version: 6.00 Build 0)  -->
<svg version="1.1" id="Layer_1" xmlns="http://www.w3.org/2000/svg" xmlns:xlink="http://www.w3.org/1999/xlink" x="0px" y="0px"
	 viewBox="0 0 511.999 511.999" style="enable-background:new 0 0 511.999 511.999;" xml:space="preserve">
<path style="fill:#149334;" d="M504.5,427.122c0,9.861-7.994,17.856-17.856,17.856H25.357c-9.862,0-17.856-7.994-17.856-17.856
	V84.876c0-9.861,7.994-17.855,17.856-17.855h461.286c9.862,0,17.856,7.994,17.856,17.855L504.5,427.122L504.5,427.122z"/>
<path style="fill:#0D7C24;" d="M145.413,187.494c0-43.211,9.975-84.088,27.728-120.474H25.357C15.495,67.02,7.5,75.015,7.5,84.875
	v342.246c0,9.861,7.994,17.856,17.856,17.856h298.144C219.442,405.751,145.413,305.27,145.413,187.494z"/>
<path style="fill:#3BBC56;" d="M486.642,67.021H255.999v377.957h230.643c9.862,0,17.856-7.994,17.856-17.856V84.876
	C504.5,75.016,496.505,67.021,486.642,67.021z"/>
<path style="fill:#29A53D;" d="M255.999,444.977h67.501c-24.329-9.172-47.017-21.692-67.501-36.999L255.999,444.977L255.999,444.977
	z"/>
<g>
	<path style="fill:#5CCC2E;" d="M504.5,140.008h-81.296c-6.055,0-10.962,4.906-10.962,10.96V361.03c0,6.05,4.906,10.96,10.962,10.96
		H504.5V140.008z"/>
	<path style="fill:#5CCC2E;" d="M7.5,140.008h81.296c6.053,0,10.962,4.906,10.962,10.96V361.03c0,6.05-4.908,10.96-10.962,10.96H7.5
		V140.008z"/>
	<circle style="fill:#5CCC2E;" cx="255.995" cy="255.994" r="82.585"/>
</g>
<path style="fill:#231F20;" d="M486.642,59.521H255.999H98.99c-4.143,0-7.5,3.358-7.5,7.5s3.357,7.5,7.5,7.5h149.509v91.708
	c-46.177,3.824-82.585,42.624-82.585,89.77s36.408,85.945,82.585,89.771v91.707H25.357c-5.71,0-10.356-4.646-10.356-10.356V379.49
	h73.795c10.181,0,18.462-8.281,18.462-18.46V150.968c0-10.179-8.281-18.46-18.462-18.46H15.001V84.876
	c0-5.71,4.646-10.355,10.356-10.355h47.632c4.143,0,7.5-3.358,7.5-7.5s-3.357-7.5-7.5-7.5H25.357C11.375,59.521,0,70.895,0,84.876
	v55.132V371.99v55.132c0,13.982,11.375,25.357,25.357,25.357h230.643h230.643c13.982,0,25.357-11.375,25.357-25.357V371.99V140.008
	V84.876C512,70.895,500.625,59.521,486.642,59.521z M88.796,147.509c1.908,0,3.461,1.552,3.461,3.459V361.03
	c0,1.907-1.553,3.459-3.461,3.459H15.001v-216.98H88.796z M263.5,270.217c5.101-2.696,8.581-8.048,8.581-14.219
	c0-6.172-3.48-11.525-8.581-14.222V181.29c37.893,3.775,67.584,35.838,67.584,74.709s-29.692,70.933-67.584,74.709V270.217z
	 M180.915,255.998c0-38.87,29.691-70.933,67.584-74.709v60.487c-5.101,2.696-8.581,8.049-8.581,14.222
	c0,6.17,3.48,11.522,8.581,14.219v60.49C210.607,326.932,180.915,294.87,180.915,255.998z M486.642,437.476H263.5V345.77
	c46.177-3.825,82.585-42.624,82.585-89.771s-36.408-85.946-82.585-89.77V74.521h223.143c5.71,0,10.356,4.645,10.356,10.355v47.632
	h-73.795c-10.181,0-18.462,8.282-18.462,18.46v20.025c0,4.142,3.357,7.5,7.5,7.5s7.5-3.358,7.5-7.5v-20.025
	c0-1.907,1.553-3.459,3.461-3.459h73.795v216.98h-73.795c-1.908,0-3.461-1.552-3.461-3.459V196.995c0-4.142-3.357-7.5-7.5-7.5
	s-7.5,3.358-7.5,7.5v164.034c0,10.18,8.282,18.46,18.462,18.46h73.795v47.632C496.999,432.831,492.353,437.476,486.642,437.476z"/>
<g>
</g>
<g>
</g>
<g>
</g>
<g>
</g>
<g>
</g>
<g>
</g>
<g>
</g>
<g>
</g>
<g>
</g>
<g>
</g>
<g>
</g>
<g>
</g>
<g>
</g>
<g>
</g>
<g>
</g>
</svg>
